<svg width="63" height="62" viewBox="0 0 63 62" fill="none" xmlns="http://www.w3.org/2000/svg">
<path d="M37.4304 1.38965C39.1169 -0.826575 42.6503 0.251268 42.8127 3.03147L43.9646 22.7574C44.0157 23.6315 44.446 24.4397 45.1428 24.9699L60.8673 36.9358C63.0835 38.6223 62.0056 42.1557 59.2254 42.318L39.4995 43.47C38.6254 43.5211 37.8172 43.9514 37.287 44.6482L25.3211 60.3726C23.6346 62.5889 20.1012 61.511 19.9389 58.7308L18.7869 39.0049C18.7358 38.1308 18.3055 37.3226 17.6087 36.7924L1.88425 24.8265C-0.331969 23.14 0.745875 19.6066 3.52607 19.4442L23.252 18.2923C24.1261 18.2412 24.9343 17.8109 25.4645 17.1141L37.4304 1.38965Z" fill="#1E1E1E"/>
</svg>
