<svg width="1099" height="1080" viewBox="0 0 1099 1080" fill="none" xmlns="http://www.w3.org/2000/svg">
<path fill-rule="evenodd" clip-rule="evenodd" d="M877.629 765.973L910.265 748.5L909.079 711.5L910.265 674.5L877.629 657.027L846.179 637.5L549.133 540L782.093 748.5L814.729 765.973L846.179 785.5L877.629 765.973Z" fill="white"/>
<path fill-rule="evenodd" clip-rule="evenodd" d="M909.079 368.5L910.265 331.5L877.629 314.027L846.179 294.5L814.729 314.027L782.093 331.5L549.133 540L846.179 442.5L877.629 422.973L910.265 405.5L909.079 368.5Z" fill="white"/>
<path fill-rule="evenodd" clip-rule="evenodd" d="M517.683 937.473L549.133 957L580.583 937.473L613.218 920L612.033 883L613.218 846L549.133 540L485.047 846L486.233 883L485.047 920L517.683 937.473Z" fill="white"/>
<path fill-rule="evenodd" clip-rule="evenodd" d="M220.636 314.027L188 331.5L189.186 368.5L188 405.5L220.636 422.973L252.086 442.5L549.133 540L316.172 331.5L283.536 314.027L252.086 294.5L220.636 314.027Z" fill="white"/>
<path fill-rule="evenodd" clip-rule="evenodd" d="M189.186 711.5L188 748.5L220.636 765.973L252.086 785.5L283.536 765.973L316.172 748.5L549.132 540L252.086 637.5L220.636 657.027L188 674.5L189.186 711.5Z" fill="white"/>
<path fill-rule="evenodd" clip-rule="evenodd" d="M580.583 142.527L549.133 123L517.683 142.527L485.047 160L486.232 197L485.047 234L549.132 540L613.218 234L612.032 197L613.218 160L580.583 142.527Z" fill="white"/>
<mask id="path-7-inside-1_49_2" fill="white">
<path fill-rule="evenodd" clip-rule="evenodd" d="M720.633 899.946L757.633 901.132L775.106 868.496L794.633 837.046L775.106 805.596L757.633 772.961L549.133 540L646.633 837.046L666.16 868.496L683.633 901.132L720.633 899.946Z"/>
</mask>
<path d="M757.633 901.132L757.569 903.131L758.81 903.171L759.396 902.076L757.633 901.132ZM720.633 899.946L720.697 897.947L720.633 897.945L720.569 897.947L720.633 899.946ZM775.106 868.496L773.406 867.441L773.373 867.496L773.342 867.552L775.106 868.496ZM794.633 837.046L796.332 838.101L796.987 837.046L796.332 835.991L794.633 837.046ZM775.106 805.596L773.342 806.54L773.373 806.597L773.406 806.651L775.106 805.596ZM757.633 772.961L759.396 772.017L759.283 771.805L759.123 771.627L757.633 772.961ZM549.133 540L550.623 538.666L547.232 540.623L549.133 540ZM646.633 837.046L644.732 837.67L644.807 837.898L644.933 838.101L646.633 837.046ZM666.16 868.496L667.923 867.552L667.893 867.496L667.859 867.441L666.16 868.496ZM683.633 901.132L681.869 902.076L682.455 903.171L683.697 903.131L683.633 901.132ZM757.697 899.133L720.697 897.947L720.569 901.945L757.569 903.131L757.697 899.133ZM773.342 867.552L755.869 900.188L759.396 902.076L776.869 869.44L773.342 867.552ZM792.933 835.991L773.406 867.441L776.805 869.551L796.332 838.101L792.933 835.991ZM773.406 806.651L792.933 838.101L796.332 835.991L776.805 804.541L773.406 806.651ZM755.869 773.905L773.342 806.54L776.869 804.652L759.396 772.017L755.869 773.905ZM759.123 771.627L550.623 538.666L547.642 541.334L756.142 774.294L759.123 771.627ZM547.232 540.623L644.732 837.67L648.533 836.423L551.033 539.376L547.232 540.623ZM667.859 867.441L648.332 835.991L644.933 838.101L664.46 869.551L667.859 867.441ZM685.396 900.188L667.923 867.552L664.396 869.44L681.869 902.076L685.396 900.188ZM720.569 897.947L683.569 899.133L683.697 903.131L720.697 901.945L720.569 897.947Z" fill="white" mask="url(#path-7-inside-1_49_2)"/>
<mask id="path-9-inside-2_49_2" fill="white">
<path fill-rule="evenodd" clip-rule="evenodd" d="M946.606 571.45L966.133 540L946.606 508.55L929.133 475.914L892.133 477.1L855.133 475.914L549.133 540L855.133 604.086L892.133 602.9L929.133 604.086L946.606 571.45Z"/>
</mask>
<path d="M966.133 540L967.832 541.055L968.487 540L967.832 538.945L966.133 540ZM946.606 571.45L944.906 570.395L944.873 570.449L944.842 570.506L946.606 571.45ZM946.606 508.55L944.842 509.494L944.873 509.55L944.906 509.605L946.606 508.55ZM929.133 475.914L930.896 474.97L930.31 473.875L929.069 473.915L929.133 475.914ZM892.133 477.1L892.069 479.099L892.133 479.101L892.197 479.099L892.133 477.1ZM855.133 475.914L855.197 473.915L854.957 473.907L854.723 473.957L855.133 475.914ZM549.133 540L548.723 538.042L548.723 541.957L549.133 540ZM855.133 604.086L854.723 606.043L854.957 606.092L855.197 606.085L855.133 604.086ZM892.133 602.9L892.197 600.901L892.133 600.899L892.069 600.901L892.133 602.9ZM929.133 604.086L929.069 606.085L930.31 606.125L930.896 605.03L929.133 604.086ZM964.433 538.945L944.906 570.395L948.305 572.505L967.832 541.055L964.433 538.945ZM944.906 509.605L964.433 541.055L967.832 538.945L948.305 507.495L944.906 509.605ZM927.369 476.858L944.842 509.494L948.369 507.606L930.896 474.97L927.369 476.858ZM892.197 479.099L929.197 477.913L929.069 473.915L892.069 475.101L892.197 479.099ZM855.069 477.913L892.069 479.099L892.197 475.101L855.197 473.915L855.069 477.913ZM854.723 473.957L548.723 538.042L549.543 541.957L855.543 477.872L854.723 473.957ZM548.723 541.957L854.723 606.043L855.543 602.128L549.543 538.042L548.723 541.957ZM892.069 600.901L855.069 602.087L855.197 606.085L892.197 604.899L892.069 600.901ZM929.197 602.087L892.197 600.901L892.069 604.899L929.069 606.085L929.197 602.087ZM944.842 570.506L927.369 603.142L930.896 605.03L948.369 572.394L944.842 570.506Z" fill="white" mask="url(#path-9-inside-2_49_2)"/>
<mask id="path-11-inside-3_49_2" fill="white">
<path fill-rule="evenodd" clip-rule="evenodd" d="M323.159 868.496L340.632 901.132L377.632 899.946L414.632 901.132L432.105 868.496L451.632 837.046L549.132 540L340.632 772.961L323.159 805.596L303.632 837.046L323.159 868.496Z"/>
</mask>
<path d="M340.632 901.132L338.869 902.076L339.455 903.171L340.697 903.131L340.632 901.132ZM323.159 868.496L324.923 867.552L324.892 867.496L324.859 867.442L323.159 868.496ZM377.632 899.946L377.697 897.948L377.632 897.945L377.568 897.948L377.632 899.946ZM414.632 901.132L414.568 903.131L415.81 903.171L416.396 902.076L414.632 901.132ZM432.105 868.496L430.406 867.442L430.373 867.496L430.342 867.552L432.105 868.496ZM451.632 837.046L453.332 838.101L453.458 837.898L453.533 837.67L451.632 837.046ZM549.132 540L551.033 540.624L547.642 538.666L549.132 540ZM340.632 772.961L339.142 771.627L338.982 771.805L338.869 772.017L340.632 772.961ZM323.159 805.596L324.859 806.651L324.892 806.597L324.923 806.54L323.159 805.596ZM303.632 837.046L301.933 835.991L301.278 837.046L301.933 838.101L303.632 837.046ZM342.396 900.188L324.923 867.552L321.396 869.44L338.869 902.076L342.396 900.188ZM377.568 897.948L340.568 899.133L340.697 903.131L377.697 901.945L377.568 897.948ZM414.697 899.133L377.697 897.948L377.568 901.945L414.568 903.131L414.697 899.133ZM430.342 867.552L412.869 900.188L416.396 902.076L433.869 869.44L430.342 867.552ZM449.933 835.992L430.406 867.442L433.805 869.551L453.332 838.101L449.933 835.992ZM453.533 837.67L551.033 540.624L547.232 539.376L449.732 836.423L453.533 837.67ZM547.642 538.666L339.142 771.627L342.123 774.294L550.623 541.334L547.642 538.666ZM324.923 806.54L342.396 773.905L338.869 772.017L321.396 804.652L324.923 806.54ZM305.332 838.101L324.859 806.651L321.46 804.541L301.933 835.991L305.332 838.101ZM324.859 867.442L305.332 835.992L301.933 838.101L321.46 869.551L324.859 867.442Z" fill="white" mask="url(#path-11-inside-3_49_2)"/>
<mask id="path-13-inside-4_49_2" fill="white">
<path fill-rule="evenodd" clip-rule="evenodd" d="M377.633 180.053L340.633 178.867L323.16 211.503L303.633 242.953L323.16 274.403L340.633 307.039L549.133 540L451.633 242.953L432.106 211.503L414.633 178.867L377.633 180.053Z"/>
</mask>
<path d="M340.633 178.867L340.697 176.868L339.456 176.828L338.869 177.923L340.633 178.867ZM377.633 180.053L377.569 182.052L377.633 182.054L377.697 182.052L377.633 180.053ZM323.16 211.503L324.859 212.558L324.893 212.504L324.923 212.447L323.16 211.503ZM303.633 242.953L301.934 241.898L301.279 242.953L301.934 244.008L303.633 242.953ZM323.16 274.403L324.923 273.459L324.893 273.403L324.859 273.348L323.16 274.403ZM340.633 307.039L338.869 307.983L338.983 308.194L339.142 308.373L340.633 307.039ZM549.133 540L547.642 541.334L551.033 539.376L549.133 540ZM451.633 242.953L453.533 242.329L453.458 242.102L453.332 241.898L451.633 242.953ZM432.106 211.503L430.342 212.447L430.373 212.504L430.407 212.558L432.106 211.503ZM414.633 178.867L416.396 177.923L415.81 176.828L414.569 176.868L414.633 178.867ZM340.569 180.866L377.569 182.052L377.697 178.054L340.697 176.868L340.569 180.866ZM324.923 212.447L342.396 179.811L338.869 177.923L321.396 210.559L324.923 212.447ZM305.332 244.008L324.859 212.558L321.461 210.448L301.934 241.898L305.332 244.008ZM324.859 273.348L305.332 241.898L301.934 244.008L321.461 275.458L324.859 273.348ZM342.396 306.095L324.923 273.459L321.396 275.347L338.869 307.983L342.396 306.095ZM339.142 308.373L547.642 541.334L550.623 538.666L342.123 305.705L339.142 308.373ZM551.033 539.376L453.533 242.329L449.732 243.577L547.232 540.624L551.033 539.376ZM430.407 212.558L449.934 244.008L453.332 241.898L433.805 210.448L430.407 212.558ZM412.869 179.811L430.342 212.447L433.869 210.559L416.396 177.923L412.869 179.811ZM377.697 182.052L414.697 180.866L414.569 176.868L377.569 178.054L377.697 182.052Z" fill="white" mask="url(#path-13-inside-4_49_2)"/>
<mask id="path-15-inside-5_49_2" fill="white">
<path fill-rule="evenodd" clip-rule="evenodd" d="M151.66 508.55L132.133 540L151.66 571.45L169.133 604.085L206.133 602.9L243.133 604.085L549.133 540L243.133 475.914L206.133 477.1L169.133 475.914L151.66 508.55Z"/>
</mask>
<path d="M132.133 540L130.433 538.945L129.778 540L130.433 541.055L132.133 540ZM151.66 508.55L153.359 509.605L153.393 509.55L153.423 509.494L151.66 508.55ZM151.66 571.45L153.423 570.506L153.393 570.449L153.359 570.395L151.66 571.45ZM169.133 604.085L167.369 605.029L167.955 606.124L169.197 606.084L169.133 604.085ZM206.133 602.9L206.197 600.901L206.133 600.899L206.068 600.901L206.133 602.9ZM243.133 604.085L243.068 606.084L243.308 606.092L243.543 606.043L243.133 604.085ZM549.133 540L549.543 541.957L549.543 538.042L549.133 540ZM243.133 475.914L243.543 473.956L243.308 473.907L243.069 473.915L243.133 475.914ZM206.133 477.1L206.069 479.099L206.133 479.101L206.197 479.099L206.133 477.1ZM169.133 475.914L169.197 473.915L167.956 473.875L167.369 474.97L169.133 475.914ZM133.832 541.055L153.359 509.605L149.96 507.495L130.433 538.945L133.832 541.055ZM153.359 570.395L133.832 538.945L130.433 541.055L149.96 572.505L153.359 570.395ZM170.896 603.141L153.423 570.506L149.896 572.394L167.369 605.029L170.896 603.141ZM206.068 600.901L169.069 602.086L169.197 606.084L206.197 604.899L206.068 600.901ZM243.197 602.086L206.197 600.901L206.068 604.899L243.068 606.084L243.197 602.086ZM243.543 606.043L549.543 541.957L548.723 538.042L242.723 602.128L243.543 606.043ZM549.543 538.042L243.543 473.956L242.723 477.871L548.723 541.957L549.543 538.042ZM206.197 479.099L243.197 477.913L243.069 473.915L206.069 475.101L206.197 479.099ZM169.069 477.913L206.069 479.099L206.197 475.101L169.197 473.915L169.069 477.913ZM153.423 509.494L170.896 476.858L167.369 474.97L149.896 507.606L153.423 509.494Z" fill="white" mask="url(#path-15-inside-5_49_2)"/>
<mask id="path-17-inside-6_49_2" fill="white">
<path fill-rule="evenodd" clip-rule="evenodd" d="M775.105 211.503L757.632 178.867L720.632 180.053L683.633 178.867L666.159 211.503L646.632 242.953L549.133 540L757.632 307.039L775.105 274.403L794.632 242.953L775.105 211.503Z"/>
</mask>
<path d="M757.632 178.867L759.396 177.923L758.81 176.829L757.568 176.868L757.632 178.867ZM775.105 211.503L773.342 212.447L773.373 212.504L773.406 212.558L775.105 211.503ZM720.632 180.053L720.568 182.052L720.633 182.054L720.697 182.052L720.632 180.053ZM683.633 178.867L683.697 176.868L682.455 176.829L681.869 177.923L683.633 178.867ZM666.159 211.503L667.859 212.558L667.892 212.504L667.923 212.447L666.159 211.503ZM646.632 242.953L644.933 241.898L644.807 242.102L644.732 242.33L646.632 242.953ZM549.133 540L547.232 539.376L550.623 541.334L549.133 540ZM757.632 307.039L759.123 308.373L759.283 308.194L759.396 307.983L757.632 307.039ZM775.105 274.403L773.406 273.348L773.373 273.403L773.342 273.459L775.105 274.403ZM794.632 242.953L796.332 244.008L796.987 242.953L796.332 241.898L794.632 242.953ZM755.869 179.811L773.342 212.447L776.869 210.559L759.396 177.923L755.869 179.811ZM720.697 182.052L757.697 180.866L757.568 176.868L720.568 178.054L720.697 182.052ZM683.568 180.866L720.568 182.052L720.697 178.054L683.697 176.868L683.568 180.866ZM667.923 212.447L685.396 179.811L681.869 177.923L664.396 210.559L667.923 212.447ZM648.332 244.008L667.859 212.558L664.46 210.448L644.933 241.898L648.332 244.008ZM644.732 242.33L547.232 539.376L551.033 540.624L648.533 243.577L644.732 242.33ZM550.623 541.334L759.123 308.373L756.142 305.705L547.642 538.666L550.623 541.334ZM773.342 273.459L755.869 306.095L759.396 307.983L776.869 275.347L773.342 273.459ZM792.933 241.898L773.406 273.348L776.805 275.458L796.332 244.008L792.933 241.898ZM773.406 212.558L792.933 244.008L796.332 241.898L776.805 210.448L773.406 212.558Z" fill="white" mask="url(#path-17-inside-6_49_2)"/>
</svg>
