<svg width="60" height="60" viewBox="0 0 60 60" fill="none" xmlns="http://www.w3.org/2000/svg">
<path d="M27.1864 2.60351C28.1529 -0.0083437 31.8471 -0.00833845 32.8136 2.60352L38.9745 19.2531C39.2783 20.0743 39.9257 20.7217 40.7469 21.0255L57.3965 27.1864C60.0083 28.1529 60.0083 31.8471 57.3965 32.8136L40.7469 38.9745C39.9257 39.2783 39.2783 39.9257 38.9745 40.7469L32.8136 57.3965C31.8471 60.0083 28.1529 60.0083 27.1864 57.3965L21.0255 40.7469C20.7217 39.9257 20.0743 39.2783 19.2531 38.9745L2.60351 32.8136C-0.0083437 31.8471 -0.00833845 28.1529 2.60352 27.1864L19.2531 21.0255C20.0743 20.7217 20.7217 20.0743 21.0255 19.2531L27.1864 2.60351Z" fill="white"/>
</svg>
